<?xml version="1.0" encoding="UTF-8"?>
<svg width="377px" height="301px" viewBox="0 0 377 301" version="1.1" xmlns="http://www.w3.org/2000/svg" xmlns:xlink="http://www.w3.org/1999/xlink">
    <!-- Generator: Sketch 42 (36781) - http://www.bohemiancoding.com/sketch -->
    <title>ic_movie copy</title>
    <desc>Created with Sketch.</desc>
    <defs></defs>
    <g id="Page-1" stroke="none" stroke-width="1" fill="none" fill-rule="evenodd">
        <g id="ic_movie-copy" transform="translate(-37.000000, -75.000000)">
            <g id="Icon-24px">
                <path d="M338.25,75.1666667 L413.416667,75.1666667 L413.416667,338.25 C413.416667,358.920833 396.504167,375.833333 375.833333,375.833333 L75.1666667,375.833333 C54.4958333,375.833333 37.5833333,358.920833 37.5833333,338.25 L37.77125,112.75 C37.77125,92.0791667 54.4958333,75.1666667 75.1666667,75.1666667 L93.9583333,75.1666667 L131.541667,150.333333 L187.916667,150.333333 L150.333333,75.1666667 L187.916667,75.1666667 L225.5,150.333333 L281.875,150.333333 L244.291667,75.1666667 L281.875,75.1666667 L319.458333,150.333333 L375.833333,150.333333 L338.25,75.1666667 Z M209.056641,211.027344 L193.285156,265.666016 L177.660156,211.027344 L161.595703,211.027344 L185.912109,283 L200.121094,283 L224.681641,211.027344 L209.056641,211.027344 Z M244.505859,260.783203 L230.150391,260.783203 C230.150391,268.27022 232.835911,274.15395 238.207031,278.43457 C243.578152,282.715191 250.951125,284.855469 260.326172,284.855469 C269.505905,284.855469 276.610326,282.682639 281.639648,278.336914 C286.66897,273.991189 289.183594,268.530632 289.183594,261.955078 C289.183594,255.542286 287.035178,250.643246 282.738281,247.257813 C279.97134,245.076812 275.869819,243.335293 270.433594,242.033203 L258.03125,239.054688 C253.24607,237.915359 250.121101,236.92253 248.65625,236.076172 C246.377593,234.806634 245.238281,232.886081 245.238281,230.314453 C245.238281,227.51496 246.393869,225.333992 248.705078,223.771484 C251.016288,222.208977 254.108705,221.427734 257.982422,221.427734 C261.465512,221.427734 264.378895,222.029942 266.722656,223.234375 C270.238299,225.057301 272.126301,228.133442 272.386719,232.462891 L286.839844,232.462891 C286.579426,224.813113 283.771837,218.97821 278.416992,214.958008 C273.062148,210.937805 266.592486,208.927734 259.007812,208.927734 C249.925736,208.927734 243.041039,211.059875 238.353516,215.324219 C233.665992,219.588563 231.322266,224.943327 231.322266,231.388672 C231.322266,238.452509 233.747372,243.644515 238.597656,246.964844 C241.462254,248.950531 246.637983,250.789705 254.125,252.482422 L261.742188,254.191406 C266.201845,255.167974 269.473297,256.291009 271.556641,257.560547 C273.639984,258.862637 274.681641,260.701811 274.681641,263.078125 C274.681641,267.147156 272.582052,269.930331 268.382812,271.427734 C266.16926,272.208988 263.288429,272.599609 259.740234,272.599609 C253.815726,272.599609 249.632825,271.118504 247.191406,268.15625 C245.856764,266.528638 244.961591,264.07098 244.505859,260.783203 Z" id="Combined-Shape" fill="#FFFFFF"></path>
                <polygon id="Shape" points="0 0 451 0 451 451 0 451"></polygon>
            </g>
        </g>
    </g>
</svg>